<svg xmlns="http://www.w3.org/2000/svg" version="1.1" xmlns:xlink="http://www.w3.org/1999/xlink" xmlns:svgjs="http://svgjs.dev/svgjs" width="2000" height="2185" viewBox="0 0 2000 2185"><g transform="matrix(1,0,0,1,-0.7002139545558066,0.8846153846152447)"><svg viewBox="0 0 226 247" data-background-color="#ffffff" preserveAspectRatio="xMidYMid meet" height="2185" width="2000" xmlns="http://www.w3.org/2000/svg" xmlns:xlink="http://www.w3.org/1999/xlink"><g id="tight-bounds" transform="matrix(1,0,0,1,0.07912417686480921,-0.09999999999999432)"><svg viewBox="0 0 225.8417516462704 247.2" height="247.2" width="225.8417516462704"><g><svg viewBox="0 0 397.4975999999999 435.089641325064" height="247.2" width="225.8417516462704"><g><rect width="397.4975999999999" height="13.326221062891" x="0" y="239.10614010891356" fill="#000000" opacity="1" stroke-width="0" stroke="transparent" fill-opacity="1" class="rect-o-0" data-fill-palette-color="primary" rx="1%" id="o-0" data-palette-color="#0718c4"></rect></g><g transform="matrix(1,0,0,1,0.9887999999999693,287.3177566243988)"><svg viewBox="0 0 395.52 147.7718847006652" height="147.7718847006652" width="395.52"><g id="textblocktransform"><svg viewBox="0 0 395.52 147.7718847006652" height="147.7718847006652" width="395.52" id="textblock"><g><svg viewBox="0 0 395.52 147.7718847006652" height="147.7718847006652" width="395.52"><g transform="matrix(1,0,0,1,0,0)"><svg width="395.52" viewBox="3.5 -33.70000076293945 90.19999694824219 33.70000076293945" height="147.7718847006652" data-palette-color="#0718c4"><path d="M8.5-13.3L7.55 0 3.5 0 5.95-33.7 11.1-33.7 15.55-21.4 20.95-5.7Q23.85-13.9 26.65-21.4L26.65-21.4 31.3-33.7 36.45-33.7 39.4 0 35.35 0 34.2-13.3 33-28.25Q30.35-20.85 27.55-13.3L27.55-13.3 22.85-0.75 19-0.75 14.55-13.3 9.45-27.95Q9.45-26 8.5-13.3L8.5-13.3ZM63.45-18.2L63.45-14.65 50.75-14.65 50.75 0 46.7 0 46.7-33.7 65.2-33.7 65.2-30.15 50.75-30.15 50.75-18.2 63.45-18.2ZM83.45 0L83.45 0 71.15 0 71.15-33.7 81.3-33.7Q86.5-33.7 89.62-31.3 92.75-28.9 92.75-24.85L92.75-24.85Q92.75-21.95 91.12-19.83 89.5-17.7 86.95-17.15L86.95-17.15Q89.75-16.7 91.72-14.63 93.7-12.55 93.7-9L93.7-9Q93.7-4.95 91.02-2.48 88.35 0 83.45 0ZM81.3-30.25L81.3-30.25 75.2-30.25 75.2-18.75 80.6-18.75Q84.65-18.75 86.6-20.45 88.55-22.15 88.55-24.85L88.55-24.85Q88.55-27.2 86.72-28.73 84.9-30.25 81.3-30.25ZM82.1-15.3L82.1-15.3 75.2-15.3 75.2-3.45 82.85-3.45Q86.05-3.45 87.77-4.93 89.5-6.4 89.5-9.25 89.5-12.1 87.57-13.7 85.65-15.3 82.1-15.3Z" opacity="1" transform="matrix(1,0,0,1,0,0)" fill="#000000" class="wordmark-text-0" data-fill-palette-color="primary" id="text-0"></path></svg></g></svg></g></svg></g></svg></g><g transform="matrix(1,0,0,1,96.63806824344474,0)"><svg viewBox="0 0 204.22146351311045 204.2207446563193" height="204.2207446563193" width="204.22146351311045"><g><svg xmlns="http://www.w3.org/2000/svg" xmlns:xlink="http://www.w3.org/1999/xlink" version="1.1" x="0" y="0" viewBox="7.734947204589844 7.735245704650879 84.53054809570312 84.5302505493164" enable-background="new 0 0 100 100" xml:space="preserve" height="204.2207446563193" width="204.22146351311045" class="icon-icon-0" data-fill-palette-color="accent" id="icon-0"><g fill="#24a8df" data-fill-palette-color="accent"><g fill="#24a8df" data-fill-palette-color="accent"><g fill="#24a8df" data-fill-palette-color="accent"><path d="M28.368 14.767C42.162 16.327 48.04 25.762 49.69 30.695c1.07 3.198 1.472 5.094 1.472 9.275 0 0.817 0.044 2.076-1.054 2.216-0.77 0.099-1.209-0.509-1.273-1.182-0.289-3.026-1.159-6.569-4.008-9.85-2.253-2.594-7.472-7.802-16.652-7.021-2.669 0.228-5.052-1.868-5.129-4.564C22.964 16.703 25.531 14.446 28.368 14.767z" fill="#000000" data-fill-palette-color="accent"></path><path d="M71.633 85.232c-13.794-1.561-19.671-10.995-21.322-15.929-1.07-3.198-1.472-5.094-1.472-9.275 0-0.817-0.044-2.076 1.054-2.216 0.77-0.099 1.209 0.509 1.273 1.182 0.289 3.026 1.159 6.569 4.008 9.85 2.253 2.594 7.472 7.802 16.652 7.021 2.669-0.228 5.052 1.868 5.129 4.564C77.037 83.296 74.47 85.553 71.633 85.232z" fill="#000000" data-fill-palette-color="accent"></path></g><g fill="#24a8df" data-fill-palette-color="accent"><path d="M14.768 71.633c1.56-13.794 10.995-19.672 15.928-21.322 3.198-1.07 5.094-1.472 9.276-1.472 0.817 0 2.076-0.045 2.216 1.054 0.098 0.77-0.509 1.209-1.182 1.273-3.026 0.288-6.569 1.159-9.849 4.008-2.594 2.254-7.802 7.473-7.021 16.652 0.228 2.669-1.868 5.052-4.564 5.129C16.704 77.036 14.447 74.47 14.768 71.633z" fill="#000000" data-fill-palette-color="accent"></path><path d="M85.233 28.367c-1.56 13.794-10.995 19.672-15.928 21.322-3.198 1.07-5.094 1.472-9.276 1.472-0.817 0-2.076 0.045-2.216-1.054-0.098-0.77 0.509-1.209 1.182-1.273 3.026-0.288 6.569-1.159 9.849-4.008 2.594-2.254 7.802-7.473 7.021-16.652-0.228-2.669 1.868-5.052 4.564-5.129C83.297 22.964 85.554 25.53 85.233 28.367z" fill="#000000" data-fill-palette-color="accent"></path></g></g><g fill="#24a8df" data-fill-palette-color="accent"><g fill="#24a8df" data-fill-palette-color="accent"><path d="M13.65 30.304c12.726-5.546 22.533-0.314 26.43 3.133 2.526 2.234 3.821 3.676 5.912 7.297 0.409 0.708 1.077 1.775 0.195 2.446-0.617 0.47-1.302 0.164-1.693-0.387-1.763-2.477-4.289-5.109-8.396-6.525-3.249-1.12-10.373-3.021-17.931 2.246-2.198 1.531-5.309 0.907-6.724-1.389C9.938 34.682 11.033 31.444 13.65 30.304z" fill="#000000" data-fill-palette-color="accent"></path><path d="M86.351 69.695c-12.726 5.546-22.533 0.314-26.43-3.133-2.526-2.234-3.821-3.676-5.912-7.297-0.409-0.708-1.077-1.775-0.196-2.446 0.618-0.47 1.302-0.164 1.694 0.387 1.763 2.477 4.289 5.109 8.396 6.525 3.249 1.12 10.373 3.021 17.931-2.245 2.198-1.532 5.309-0.908 6.724 1.388C90.063 65.317 88.968 68.555 86.351 69.695z" fill="#000000" data-fill-palette-color="accent"></path></g><g fill="#24a8df" data-fill-palette-color="accent"><path d="M30.304 86.351c-5.546-12.726-0.314-22.533 3.133-26.43 2.235-2.525 3.676-3.821 7.298-5.912 0.708-0.409 1.775-1.076 2.445-0.195 0.47 0.617 0.164 1.302-0.387 1.693-2.477 1.764-5.109 4.289-6.525 8.396-1.12 3.248-3.021 10.372 2.246 17.931 1.531 2.198 0.908 5.31-1.389 6.725C34.683 90.062 31.445 88.968 30.304 86.351z" fill="#000000" data-fill-palette-color="accent"></path><path d="M69.696 13.649c5.546 12.726 0.314 22.533-3.133 26.43-2.234 2.526-3.675 3.821-7.297 5.913-0.708 0.408-1.775 1.076-2.446 0.195-0.47-0.618-0.163-1.303 0.388-1.694 2.477-1.763 5.109-4.288 6.525-8.396 1.12-3.249 3.021-10.372-2.246-17.932-1.532-2.198-0.908-5.309 1.388-6.724C65.318 9.938 68.556 11.032 69.696 13.649z" fill="#000000" data-fill-palette-color="accent"></path></g></g><g fill="#24a8df" data-fill-palette-color="accent"><g fill="#24a8df" data-fill-palette-color="accent"><path d="M8.671 51.118c8.248-11.166 19.357-11.539 24.456-10.502 3.305 0.672 5.147 1.272 8.769 3.363 0.708 0.408 1.82 0.999 1.392 2.021-0.299 0.716-1.045 0.793-1.66 0.512-2.765-1.263-6.269-2.28-10.533-1.453-3.374 0.654-10.494 2.57-14.406 10.911-1.138 2.425-4.144 3.44-6.518 2.159C7.646 56.766 6.976 53.414 8.671 51.118z" fill="#000000" data-fill-palette-color="accent"></path><path d="M91.329 48.882C83.081 60.047 71.971 60.42 66.874 59.383c-3.305-0.672-5.147-1.272-8.769-3.363-0.708-0.408-1.82-0.999-1.393-2.021 0.3-0.716 1.046-0.793 1.66-0.512 2.766 1.264 6.269 2.28 10.534 1.453 3.373-0.654 10.493-2.569 14.406-10.91 1.138-2.426 4.144-3.441 6.517-2.16C92.354 43.233 93.025 46.585 91.329 48.882z" fill="#000000" data-fill-palette-color="accent"></path></g><g fill="#24a8df" data-fill-palette-color="accent"><path d="M51.119 91.329C39.953 83.081 39.58 71.972 40.617 66.874c0.673-3.305 1.272-5.147 3.364-8.77 0.409-0.708 1-1.819 2.02-1.392 0.716 0.3 0.793 1.045 0.512 1.66-1.263 2.765-2.28 6.269-1.453 10.533 0.654 3.374 2.57 10.493 10.911 14.406 2.425 1.138 3.44 4.144 2.159 6.518C56.766 92.354 53.415 93.025 51.119 91.329z" fill="#000000" data-fill-palette-color="accent"></path><path d="M48.882 8.672c11.166 8.247 11.538 19.356 10.501 24.455-0.672 3.305-1.271 5.147-3.362 8.77-0.409 0.707-1 1.819-2.021 1.392-0.716-0.3-0.792-1.046-0.511-1.661 1.263-2.765 2.28-6.268 1.453-10.533-0.655-3.373-2.57-10.492-10.911-14.406-2.426-1.137-3.44-4.144-2.159-6.517C43.234 7.646 46.585 6.976 48.882 8.672z" fill="#000000" data-fill-palette-color="accent"></path></g></g></g></svg></g></svg></g><g></g></svg></g><defs></defs></svg><rect width="225.8417516462704" height="247.2" fill="none" stroke="none" visibility="hidden"></rect></g></svg></g></svg>